<?xml version="1.0" encoding="UTF-8" standalone="no"?>
<!DOCTYPE svg PUBLIC "-//W3C//DTD SVG 1.1//EN" "http://www.w3.org/Graphics/SVG/1.1/DTD/svg11.dtd">
<svg width="100%" height="100%" viewBox="0 0 1500 488" version="1.1" xmlns="http://www.w3.org/2000/svg" xmlns:xlink="http://www.w3.org/1999/xlink" xml:space="preserve" xmlns:serif="http://www.serif.com/" style="fill-rule:evenodd;clip-rule:evenodd;stroke-linejoin:round;stroke-miterlimit:10;">
    <rect x="0" y="-12.2" width="1500" height="524" style="fill:rgb(97,141,230);"/>
    <g>
        <g opacity="0.5">
            <path d="M1084.5,200.6C1084.9,199.7 1085.1,198.8 1085.1,197.8C1085.1,193.9 1082,190.8 1078.1,190.8C1076.8,190.8 1075.6,191.1 1074.6,191.7C1073.9,187 1069.8,183.4 1064.9,183.4C1064,183.4 1063,183.5 1062.2,183.8C1060.5,178.7 1055.7,174.9 1050,174.9C1044,174.9 1038.9,179.1 1037.5,184.7C1037.2,184.6 1036.9,184.6 1036.6,184.6C1034.5,184.6 1032.9,186.3 1032.9,188.3C1032.9,188.6 1032.9,188.9 1033,189.2C1030.2,189.5 1027.9,191.2 1026.6,193.5C1026.4,193.5 1026.2,193.5 1025.9,193.5C1022,193.5 1018.9,196.6 1018.9,200.5L1084.5,200.5L1084.5,200.6Z" style="fill:none;stroke:rgb(131,234,255);stroke-width:2px;"/>
            <path d="M1399.1,129.3C1399.1,124.7 1395.5,121.1 1391,121.1C1389.1,121.1 1387.3,121.8 1385.9,122.9C1384.1,119.2 1380.2,116.6 1375.8,116.6C1375.4,116.6 1374.9,116.6 1374.5,116.7C1373.3,114 1370.5,112.1 1367.3,112.1C1366.2,112.1 1365.1,112.3 1364.1,112.8C1361.9,108.5 1357.5,105.6 1352.4,105.6C1345.2,105.6 1339.3,111.5 1339.3,118.7C1339.3,119.5 1339.4,120.4 1339.5,121.2C1335.6,121.9 1332.7,125.3 1332.7,129.4L1399.1,129.4L1399.1,129.3Z" style="fill:none;stroke:rgb(131,234,255);stroke-width:2px;"/>
            <path d="M68.9,206.3C70.6,206.3 72.2,206.7 73.5,207.5C75.7,204.1 79.6,201.9 84,201.9C85,201.9 86,202 86.9,202.2C87.9,194.1 94.9,187.8 103.3,187.8C112.4,187.8 119.8,195.2 119.8,204.3C120.1,204.3 120.5,204.3 120.8,204.3C126.4,204.3 130.9,208.8 130.9,214.4L59.3,214.4C60.1,209.8 64.1,206.3 68.9,206.3Z" style="fill:none;stroke:rgb(131,234,255);stroke-width:2px;"/>
            <path d="M208,338.1C209.7,338.1 211.3,338.5 212.6,339.3C214.8,335.9 218.7,333.7 223.1,333.7C224.1,333.7 225.1,333.8 226,334C227,325.9 234,319.6 242.4,319.6C251.5,319.6 258.9,327 258.9,336.1C259.2,336.1 259.6,336.1 259.9,336.1C265.5,336.1 270,340.6 270,346.2L198.5,346.2C199.2,341.6 203.2,338.1 208,338.1Z" style="fill:none;stroke:rgb(131,234,255);stroke-width:2px;"/>
            <path d="M451,130.3C451.4,129.4 451.6,128.5 451.6,127.5C451.6,123.6 448.5,120.5 444.6,120.5C443.3,120.5 442.1,120.8 441.1,121.4C440.4,116.7 436.3,113.1 431.4,113.1C430.5,113.1 429.5,113.2 428.7,113.5C427,108.4 422.2,104.6 416.5,104.6C410.5,104.6 405.4,108.8 404,114.4C403.7,114.3 403.4,114.3 403.1,114.3C401,114.3 399.4,116 399.4,118C399.4,118.3 399.4,118.6 399.5,118.9C396.7,119.2 394.4,120.9 393.1,123.2C392.9,123.2 392.7,123.2 392.4,123.2C388.5,123.2 385.4,126.3 385.4,130.2L451,130.2L451,130.3Z" style="fill:none;stroke:rgb(131,234,255);stroke-width:2px;"/>
            <path d="M1294.1,344.8C1294.1,344.8 1294.1,344.7 1294.1,344.8C1294.1,340.2 1297.7,336.6 1302.2,336.6C1304.1,336.6 1305.9,337.3 1307.3,338.4C1309.1,334.7 1313,332.1 1317.4,332.1C1317.8,332.1 1318.3,332.1 1318.7,332.2C1319.9,329.5 1322.7,327.6 1325.9,327.6C1327,327.6 1328.1,327.8 1329.1,328.3C1331.3,324 1335.7,321.1 1340.8,321.1C1348,321.1 1353.9,327 1353.9,334.2C1353.9,335 1353.8,335.9 1353.7,336.7C1357.6,337.4 1360.5,340.8 1360.5,344.9L1294.1,344.9L1294.1,344.8Z" style="fill:none;stroke:rgb(131,234,255);stroke-width:2px;"/>
        </g>
    </g>
</svg>
