<?xml version="1.0" encoding="UTF-8" standalone="no"?><!DOCTYPE svg PUBLIC "-//W3C//DTD SVG 1.1//EN" "http://www.w3.org/Graphics/SVG/1.1/DTD/svg11.dtd"><svg width="100%" height="100%" viewBox="0 0 128 128" version="1.1" xmlns="http://www.w3.org/2000/svg" xmlns:xlink="http://www.w3.org/1999/xlink" xml:space="preserve" xmlns:serif="http://www.serif.com/" style="fill-rule:evenodd;clip-rule:evenodd;stroke-linejoin:round;stroke-miterlimit:1.41421;"><g><g><g><path d="M53.23,97.638l0.003,23.96l6.766,0l0,-23.959l-6.769,-0.001Zm-53.23,-0.032l0,23.992l6.827,0l0,-18.218l5.288,0.002c1.752,0 3,0.436 3.844,1.337c1.071,1.141 1.507,2.979 1.507,6.344l0,10.535l6.615,0l0,-13.255c0,-9.461 -6.031,-10.737 -11.93,-10.737l-12.151,0Zm64.125,0.033l0,23.959l10.976,0c5.847,0 7.756,-0.973 9.82,-3.153c1.459,-1.531 2.401,-4.891 2.401,-8.563c0,-3.368 -0.797,-6.372 -2.19,-8.243c-2.506,-3.346 -6.118,-4 -11.51,-4l-9.497,0Zm6.713,5.217l2.909,0c4.221,0 6.951,1.895 6.951,6.814c0,4.919 -2.73,6.814 -6.951,6.814l-2.909,0l0,-13.628Zm-27.364,-5.217l-5.647,18.989l-5.411,-18.987l-7.305,-0.002l7.728,23.959l9.753,0l7.789,-23.959l-6.907,0Zm46.997,23.959l6.768,0l0,-23.957l-6.769,-0.002l0.001,23.959Zm18.969,-23.95l-9.448,23.942l6.672,0l1.495,-4.232l11.182,0l1.415,4.232l7.244,0l-9.521,-23.944l-9.039,0.002Zm4.393,4.368l4.099,11.216l-8.328,0l4.229,-11.216Z" style="fill:#484848;"/></g><g><path d="M47.759,31.676l0,-7.651c0.742,-0.053 1.492,-0.092 2.257,-0.117c20.926,-0.657 34.654,17.981 34.654,17.981c0,0 -14.827,20.594 -30.725,20.594c-2.29,0 -4.339,-0.369 -6.186,-0.989l0,-23.201c8.146,0.984 9.784,4.583 14.683,12.747l10.892,-9.184c0,0 -7.951,-10.429 -21.355,-10.429c-1.458,0 -2.852,0.103 -4.22,0.249Zm0,-25.274l0,11.428c0.75,-0.059 1.502,-0.107 2.257,-0.134c29.1,-0.98 48.059,23.865 48.059,23.865c0,0 -21.777,26.48 -44.463,26.48c-2.078,0 -4.025,-0.192 -5.853,-0.516l0,7.064c1.564,0.199 3.183,0.316 4.874,0.316c21.112,0 36.38,-10.78 51.164,-23.541c2.449,1.962 12.485,6.737 14.549,8.829c-14.058,11.768 -46.817,21.252 -65.388,21.252c-1.79,0 -3.511,-0.108 -5.199,-0.27l0,9.928l80.241,0l0,-84.701l-80.241,0Zm0,55.092l0,6.031c-19.527,-3.481 -24.946,-23.779 -24.946,-23.779c0,0 9.375,-10.387 24.946,-12.07l0,6.617c-0.013,0 -0.02,-0.003 -0.031,-0.003c-8.171,-0.981 -14.555,6.654 -14.555,6.654c0,0 3.577,12.851 14.586,16.55Zm-34.681,-18.627c0,0 11.572,-17.077 34.681,-18.842l0,-6.195c-25.595,2.054 -47.759,23.731 -47.759,23.731c0,0 12.552,36.291 47.759,39.614l0,-6.586c-25.835,-3.25 -34.681,-31.722 -34.681,-31.722Z" style="fill:#484848;"/></g></g></g></svg>